<?xml version="1.0" encoding="iso-8859-1"?>
<!-- Generator: Adobe Illustrator 23.1.1, SVG Export Plug-In . SVG Version: 6.00 Build 0)  -->
<svg version="1.1" id="Capa_1" xmlns="http://www.w3.org/2000/svg" xmlns:xlink="http://www.w3.org/1999/xlink" x="0px" y="0px"
	 width="84px" height="84px" viewBox="0 0 84 84" style="enable-background:new 0 0 84 84;" xml:space="preserve">
<g>
	<path style="fill:#FFFFFF;" d="M31.476,43.944c-1.551,0-2.873,0.852-2.873,4.048v9.161c0,3.195,1.322,4.048,2.873,4.048
		c1.552,0,2.873-0.852,2.873-4.048v-9.161C34.349,44.796,33.028,43.944,31.476,43.944 M40.096,56.301c0,7.35-4.54,9.8-8.621,9.8
		c-4.08,0-8.621-2.449-8.621-9.8v-7.457c0-7.35,4.54-9.8,8.621-9.8c4.08,0,8.621,2.449,8.621,9.8V56.301z"/>
	<path style="fill:#FFFFFF;" d="M58.085,59.123c-0.288,3.303-3.391,6.977-8.333,6.977c-5.345,0-8.391-4.314-8.391-7.456
		c0-0.799,0.288-1.065,1.15-1.065h3.333c0.862,0,1.15,0.266,1.15,1.065c0,1.597,1.437,2.556,2.759,2.556
		c1.263,0,2.701-0.959,2.759-2.556c0.229-4.795-9.771-5.699-10.23-12.464c-0.288-4.101,3.449-7.136,7.472-7.136
		c4.138,0,7.644,3.302,7.644,7.297c0,0.798-0.288,1.065-1.15,1.065h-2.989c-0.804,0-1.149-0.213-1.149-1.279
		c0-1.331-0.978-2.29-2.299-2.29c-1.265,0-2.241,0.959-2.241,2.13C47.51,49.909,58.716,51.826,58.085,59.123"/>
	<path style="fill:#FFFFFF;" d="M71.452,56.939v-4.26c-3.104,1.278-5.747,1.864-5.747,4.526v0.427c0,0.799,0,3.569,2.873,3.569
		C71.049,61.201,71.394,59.177,71.452,56.939 M77.199,62.213c0.057,1.118,0.288,1.971,0.46,2.61c0.172,0.799-0.287,1.065-1.15,1.065
		H73.29c-0.804,0-1.091-0.16-1.263-1.598c0,0-1.839,1.811-4.771,1.811c-4.138,0-7.299-2.343-7.299-7.084v-2.343
		c0-5.859,5.46-6.498,8.908-7.67c1.724-0.586,2.587-1.385,2.587-2.663c0-1.225-1.035-2.397-2.587-2.397
		c-1.437,0-2.816,1.119-2.701,3.143c0.057,0.799-0.23,1.065-1.15,1.065h-3.218c-0.862,0-1.092-0.266-1.149-1.065
		c-0.172-4.421,3.506-8.043,8.218-8.043c4.31,0,8.333,3.089,8.333,8.203V62.213z"/>
	<path style="fill:#FFFFFF;" d="M20.163,17.358l-4.903-5.201c-0.16-0.148-0.4-0.193-0.611-0.112c-0.209,0.08-0.346,0.269-0.346,0.48
		v53.056c0,0.287,0.251,0.519,0.561,0.519h4.902c0.31,0,0.561-0.232,0.561-0.519V17.725C20.327,17.587,20.266,17.455,20.163,17.358"
		/>
	<path style="fill:#FFFFFF;" d="M5.9,6.466l4.903-5.201c0.16-0.148,0.4-0.193,0.611-0.112c0.209,0.08,0.346,0.269,0.346,0.48v63.948
		c0,0.287-0.251,0.519-0.561,0.519H6.297c-0.31,0-0.561-0.232-0.561-0.519V6.832C5.736,6.695,5.796,6.563,5.9,6.466"/>
	<path style="fill:#FFFFFF;" d="M80.781,70.24c0,0.226-0.13,0.408-0.291,0.408H2.94c-0.161,0-0.291-0.183-0.291-0.408
		c0-0.226,0.13-0.407,0.291-0.407h77.55C80.651,69.833,80.781,70.015,80.781,70.24"/>
	<g>
		<path style="fill:#FFFFFF;" d="M5.253,81.92v-5.654c0-0.247,0.132-0.386,0.353-0.386h3.387c0.221,0,0.353,0.128,0.353,0.376v0.347
			c0,0.247-0.132,0.386-0.353,0.386H6.443v1.565h1.914c0.22,0,0.353,0.128,0.353,0.376v0.297c0,0.248-0.132,0.387-0.353,0.387H6.443
			v1.594H9.01c0.22,0,0.344,0.129,0.344,0.377v0.347c0,0.247-0.124,0.386-0.344,0.386H5.605C5.385,82.316,5.253,82.168,5.253,81.92z
			"/>
		<path style="fill:#FFFFFF;" d="M11.249,81.92v-5.654c0-0.247,0.132-0.386,0.353-0.386h2.082c1.834,0,3.007,1.287,3.007,3.208
			c0,1.941-1.173,3.229-3.007,3.229h-2.082C11.381,82.316,11.249,82.168,11.249,81.92z M13.648,81.207
			c1.094,0,1.826-0.812,1.826-2.109c0-1.307-0.732-2.109-1.826-2.109h-1.208v4.219H13.648z"/>
		<path style="fill:#FFFFFF;" d="M18.612,81.92v-5.654c0-0.247,0.124-0.386,0.344-0.386h0.512c0.221,0,0.335,0.139,0.335,0.386
			v5.654c0,0.248-0.114,0.396-0.335,0.396h-0.512C18.735,82.316,18.612,82.168,18.612,81.92z"/>
		<path style="fill:#FFFFFF;" d="M22.06,81.92v-5.654c0-0.247,0.132-0.386,0.353-0.386h3.281c0.22,0,0.353,0.128,0.353,0.376v0.347
			c0,0.247-0.132,0.386-0.353,0.386H23.25v1.635h1.773c0.22,0,0.353,0.139,0.353,0.386v0.297c0,0.248-0.132,0.377-0.353,0.377H23.25
			v2.237c0,0.248-0.115,0.396-0.335,0.396h-0.512C22.183,82.316,22.06,82.168,22.06,81.92z"/>
		<path style="fill:#FFFFFF;" d="M27.765,81.92v-5.654c0-0.247,0.124-0.386,0.344-0.386h0.512c0.22,0,0.335,0.139,0.335,0.386v5.654
			c0,0.248-0.115,0.396-0.335,0.396h-0.512C27.888,82.316,27.765,82.168,27.765,81.92z"/>
		<path style="fill:#FFFFFF;" d="M30.859,79.098c0-1.911,1.35-3.337,3.078-3.337c0.882,0,1.658,0.386,2.196,1.02
			c0.159,0.179,0.15,0.387-0.018,0.535l-0.318,0.307c-0.167,0.148-0.317,0.129-0.485-0.029c-0.362-0.387-0.829-0.624-1.367-0.624
			c-1.049,0-1.87,0.892-1.87,2.129c0,1.238,0.82,2.13,1.87,2.13c0.538,0,1.014-0.238,1.367-0.624
			c0.167-0.169,0.317-0.188,0.485-0.03l0.318,0.297c0.167,0.159,0.176,0.367,0.018,0.535c-0.538,0.644-1.314,1.03-2.205,1.03
			C32.209,82.436,30.859,81.009,30.859,79.098z"/>
		<path style="fill:#FFFFFF;" d="M42.958,82.316h-0.688c-0.221,0-0.265-0.139-0.362-0.386l-0.309-0.832H38.99l-0.317,0.832
			c-0.088,0.247-0.132,0.386-0.362,0.386h-0.644c-0.221,0-0.335-0.139-0.229-0.386l2.425-5.773c0.088-0.208,0.212-0.337,0.415-0.337
			h0.08c0.203,0,0.335,0.129,0.423,0.337l2.417,5.773C43.294,82.178,43.188,82.316,42.958,82.316z M41.239,80.138l-0.926-2.495
			l-0.953,2.495H41.239z"/>
		<path style="fill:#FFFFFF;" d="M44.359,79.098c0-1.911,1.35-3.337,3.078-3.337c0.882,0,1.658,0.386,2.196,1.02
			c0.159,0.179,0.15,0.387-0.018,0.535l-0.317,0.307c-0.168,0.148-0.317,0.129-0.485-0.029c-0.361-0.387-0.829-0.624-1.367-0.624
			c-1.049,0-1.869,0.892-1.869,2.129c0,1.238,0.82,2.13,1.869,2.13c0.538,0,1.015-0.238,1.367-0.624
			c0.168-0.169,0.317-0.188,0.485-0.03l0.317,0.297c0.168,0.159,0.177,0.367,0.018,0.535c-0.538,0.644-1.314,1.03-2.205,1.03
			C45.709,82.436,44.359,81.009,44.359,79.098z"/>
		<path style="fill:#FFFFFF;" d="M51.547,81.92v-5.654c0-0.247,0.123-0.386,0.344-0.386h0.512c0.221,0,0.335,0.139,0.335,0.386
			v5.654c0,0.248-0.114,0.396-0.335,0.396h-0.512C51.67,82.316,51.547,82.168,51.547,81.92z"/>
		<path style="fill:#FFFFFF;" d="M54.642,79.098c0-1.911,1.35-3.337,3.113-3.337c1.772,0,3.113,1.426,3.113,3.337
			c0,1.901-1.341,3.338-3.113,3.338C55.991,82.436,54.642,81.009,54.642,79.098z M59.66,79.098c0-1.247-0.838-2.129-1.905-2.129
			s-1.896,0.882-1.896,2.129c0,1.238,0.829,2.13,1.896,2.13S59.66,80.336,59.66,79.098z"/>
		<path style="fill:#FFFFFF;" d="M67.781,76.266v5.685c0,0.287-0.186,0.416-0.396,0.416h-0.071c-0.202,0-0.353-0.129-0.521-0.356
			l-2.84-3.803v3.713c0,0.248-0.114,0.396-0.335,0.396h-0.503c-0.22,0-0.344-0.148-0.344-0.396v-5.674
			c0-0.297,0.186-0.416,0.397-0.416h0.07c0.203,0,0.353,0.129,0.521,0.356l2.84,3.793v-3.714c0-0.247,0.114-0.386,0.335-0.386h0.503
			C67.658,75.88,67.781,76.019,67.781,76.266z"/>
		<path style="fill:#FFFFFF;" d="M70.038,81.92v-5.654c0-0.247,0.132-0.386,0.353-0.386h3.387c0.221,0,0.353,0.128,0.353,0.376
			v0.347c0,0.247-0.132,0.386-0.353,0.386h-2.549v1.565h1.914c0.22,0,0.353,0.128,0.353,0.376v0.297
			c0,0.248-0.133,0.387-0.353,0.387h-1.914v1.594h2.566c0.221,0,0.344,0.129,0.344,0.377v0.347c0,0.247-0.123,0.386-0.344,0.386
			h-3.404C70.17,82.316,70.038,82.168,70.038,81.92z"/>
		<path style="fill:#FFFFFF;" d="M75.733,81.445c-0.158-0.179-0.212-0.377-0.035-0.575l0.203-0.267
			c0.158-0.188,0.335-0.238,0.512-0.05c0.361,0.455,0.987,0.732,1.481,0.732c0.635,0,1.031-0.307,1.031-0.752
			c0-0.644-0.644-0.724-1.42-1.021c-0.731-0.268-1.676-0.732-1.676-1.901c0-1.089,0.856-1.852,2.091-1.852
			c0.794,0,1.438,0.307,1.879,0.763c0.167,0.158,0.237,0.356,0.062,0.564l-0.203,0.268c-0.149,0.178-0.317,0.228-0.503,0.049
			c-0.309-0.307-0.705-0.555-1.217-0.555c-0.521,0-0.891,0.277-0.891,0.684c0,0.485,0.467,0.674,0.97,0.861
			c0.971,0.367,2.126,0.684,2.126,2.13c0,1.208-0.962,1.911-2.179,1.911C77.074,82.436,76.236,82.079,75.733,81.445z"/>
	</g>
</g>
<g>
</g>
<g>
</g>
<g>
</g>
<g>
</g>
<g>
</g>
<g>
</g>
<g>
</g>
<g>
</g>
<g>
</g>
<g>
</g>
<g>
</g>
<g>
</g>
<g>
</g>
<g>
</g>
<g>
</g>
</svg>
